# xmcd
#
# Track frame offsets: 
#        150
#        17917
#        41607
#        59039
#        77536
#        82948
#        98461
#        112691
#        132416
#        140660
#        154910
#        170002
#        184264
#
# Disc length: 2898 seconds
#
# Revision: 0
# Processed by: cddbd v1.5.1PL0 Copyright (c) Steve Scherf et al.
# Submitted via: ExactAudioCopy v0.95a5
#
DISCID=a60b500d
DTITLE=Richard Stooksbury - Richard Stooksbury
DYEAR=2005
DGENRE=Country
TTITLE0=Carol Ann
TTITLE1=Out of the Rain
TTITLE2=Old Truck
TTITLE3=Railroad Blues
TTITLE4=Lost Indian
TTITLE5=Carry Me Back
TTITLE6=Tangle Eye
TTITLE7=Family
TTITLE8=Hills of Tennessee
TTITLE9=South Douglas
TTITLE10=No Place Like Home
TTITLE11=Fort Sanders
TTITLE12=Waltzin' Her Off of My Mind
EXTD=
EXTT0=
EXTT1=
EXTT2=
EXTT3=
EXTT4=
EXTT5=
EXTT6=
EXTT7=
EXTT8=
EXTT9=
EXTT10=
EXTT11=
EXTT12=
PLAYORDER=
